<mxfile host="app.diagrams.net" modified="2023-09-08T18:44:07.470Z" agent="Mozilla/5.0 (Windows NT 10.0; Win64; x64) AppleWebKit/537.36 (KHTML, like Gecko) Chrome/116.0.0.0 Safari/537.36" etag="kSR0Q0DNz3PhC6Km_Tpp" version="21.7.1" type="github">
  <diagram name="PÃ¡gina-1" id="Yi33oZd_pEWtdlWNgvh2">
    <mxGraphModel dx="1434" dy="790" grid="1" gridSize="10" guides="1" tooltips="1" connect="1" arrows="1" fold="1" page="1" pageScale="1" pageWidth="827" pageHeight="1169" math="0" shadow="0">
      <root>
        <mxCell id="0" />
        <mxCell id="1" parent="0" />
        <mxCell id="KbbWXVlq2Cv3EojK0A0T-2" value="&lt;font style=&quot;font-size: 20px;&quot;&gt;Leer numero1, numero2&lt;/font&gt;" style="shape=parallelogram;perimeter=parallelogramPerimeter;whiteSpace=wrap;html=1;fixedSize=1;" vertex="1" parent="1">
          <mxGeometry x="320" y="210" width="196" height="60" as="geometry" />
        </mxCell>
        <mxCell id="KbbWXVlq2Cv3EojK0A0T-3" value="" style="endArrow=classic;html=1;rounded=0;" edge="1" parent="1">
          <mxGeometry width="50" height="50" relative="1" as="geometry">
            <mxPoint x="414" y="150" as="sourcePoint" />
            <mxPoint x="414" y="200" as="targetPoint" />
          </mxGeometry>
        </mxCell>
        <mxCell id="KbbWXVlq2Cv3EojK0A0T-4" value="&lt;font style=&quot;font-size: 20px;&quot;&gt;Suma = numero1 + numero2&lt;/font&gt;" style="rounded=0;whiteSpace=wrap;html=1;" vertex="1" parent="1">
          <mxGeometry x="283" y="370" width="270" height="60" as="geometry" />
        </mxCell>
        <mxCell id="KbbWXVlq2Cv3EojK0A0T-5" value="&lt;font style=&quot;font-size: 20px;&quot;&gt;Inicio&lt;/font&gt;" style="rounded=1;whiteSpace=wrap;html=1;" vertex="1" parent="1">
          <mxGeometry x="350" y="70" width="120" height="60" as="geometry" />
        </mxCell>
        <mxCell id="KbbWXVlq2Cv3EojK0A0T-6" value="" style="endArrow=classic;html=1;rounded=0;" edge="1" parent="1">
          <mxGeometry width="50" height="50" relative="1" as="geometry">
            <mxPoint x="409.5" y="300" as="sourcePoint" />
            <mxPoint x="409.5" y="350" as="targetPoint" />
          </mxGeometry>
        </mxCell>
        <mxCell id="KbbWXVlq2Cv3EojK0A0T-7" value="" style="endArrow=classic;html=1;rounded=0;" edge="1" parent="1">
          <mxGeometry width="50" height="50" relative="1" as="geometry">
            <mxPoint x="409.5" y="450" as="sourcePoint" />
            <mxPoint x="409.5" y="500" as="targetPoint" />
          </mxGeometry>
        </mxCell>
        <mxCell id="KbbWXVlq2Cv3EojK0A0T-8" value="&lt;font style=&quot;font-size: 20px;&quot;&gt;Escribir suma&lt;/font&gt;" style="shape=parallelogram;perimeter=parallelogramPerimeter;whiteSpace=wrap;html=1;fixedSize=1;" vertex="1" parent="1">
          <mxGeometry x="335" y="530" width="166" height="60" as="geometry" />
        </mxCell>
        <mxCell id="KbbWXVlq2Cv3EojK0A0T-9" value="" style="endArrow=classic;html=1;rounded=0;" edge="1" parent="1">
          <mxGeometry width="50" height="50" relative="1" as="geometry">
            <mxPoint x="409.5" y="610" as="sourcePoint" />
            <mxPoint x="409.5" y="660" as="targetPoint" />
          </mxGeometry>
        </mxCell>
        <mxCell id="KbbWXVlq2Cv3EojK0A0T-10" value="&lt;font style=&quot;font-size: 20px;&quot;&gt;Fin&lt;/font&gt;" style="rounded=1;whiteSpace=wrap;html=1;" vertex="1" parent="1">
          <mxGeometry x="350" y="690" width="120" height="60" as="geometry" />
        </mxCell>
      </root>
    </mxGraphModel>
  </diagram>
</mxfile>
